<svg id="Layer_1" data-name="Layer 1" xmlns="http://www.w3.org/2000/svg" width="100" height="100" viewBox="0 0 100 100"><path d="M51.68,42.25c-1.57,2.63-5.3,8.93-15.89,8.93C24.3,51.18,17.08,43.77,17.08,32c0-11.35,7.17-19.17,17.55-19.17,12.21,0,15.18,7.11,16.54,10L43.91,27c-1.86-4.28-4.39-6.75-8.67-6.75-5.5,0-8.78,4.33-8.78,11.7s3.38,11.54,9.28,11.54c5.3,0,7.87-4.43,8.88-6.2Z"/><path d="M65.26,77.8c5.95,0,9.38-4.44,9.38-11.45s-3.43-11.3-9.38-11.3-9.38,4.29-9.38,11.3S59.31,77.8,65.26,77.8m0-30.66c10.28,0,18.81,6.8,18.81,19.21C84,78.5,75.54,85.61,65.26,85.61S46.45,78.75,46.45,66.35,55,47.14,65.26,47.14"/><polygon points="99.75 2.1 -0.37 97.95 -0.2 98.12 99.91 2.27 99.75 2.1"/></svg>